<svg width="264" height="280" viewBox="0 0 264 280" xmlns="http://www.w3.org/2000/svg" xmlns:xlink="http://www.w3.org/1999/xlink"><rect width="264" height="280" fill="#fff"/><defs><path d="M12 160c0 66.274 53.726 120 120 120s120-53.726 120-120h12V0H0v160z" id="c"/><path d="M124 144.611V163h4c39.765 0 72 32.235 72 72v9H0v-9c0-39.765 32.235-72 72-72h4v-18.389c-17.237-8.189-29.628-24.924-31.695-44.73C38.48 99.058 34 94.052 34 88V74c0-5.946 4.325-10.882 10-11.834V56c0-30.928 25.072-56 56-56s56 25.072 56 56v6.166c5.675.952 10 5.888 10 11.834v14c0 6.052-4.48 11.058-10.305 11.881-2.067 19.806-14.458 36.541-31.695 44.73" id="e"/></defs><g fill="none" fill-rule="evenodd"><mask id="d" fill="#fff"><use xlink:href="#c"/></mask><g/><g mask="url(#d)"><g transform="translate(32 36)"><mask id="f" fill="#fff"><use xlink:href="#e"/></mask><use fill="#d0c6ac" xlink:href="#e"/><g mask="url(#f)" fill="#edb98a"><path d="M0 0h264v280H0z"/></g><path d="M156 79v23c0 30.928-25.072 56-56 56s-56-25.072-56-56V79v15c0 30.928 25.072 56 56 56s56-25.072 56-56z" fill-opacity=".1" fill="#000" mask="url(#f)"/></g><g transform="translate(0 170)"><defs><path d="M165.96 29.295c36.976 3.03 66.04 34 66.04 71.757V110H32v-8.948c0-38.1 29.592-69.287 67.045-71.832Q99 29.78 99 30.348c0 11.863 14.998 21.48 33.5 21.48S166 42.21 166 30.348q0-.53-.04-1.053" id="g"/></defs><mask id="h" fill="#fff"><use xlink:href="#g"/></mask><use fill="#e6e6e6" xlink:href="#g"/><g mask="url(#h)" fill="#5199e4"><path d="M0 0h264v110H0z"/></g><g opacity=".6" mask="url(#h)" fill-opacity=".16" fill="#000"><ellipse cx="40.5" cy="27.848" rx="39.635" ry="26.914" transform="translate(92 4)"/></g></g><g fill="#000"><g transform="translate(78 134)"><defs><path d="M35.118 15.128C36.176 24.62 44.226 32 54 32c9.804 0 17.874-7.426 18.892-16.96.082-.767-.775-2.04-1.85-2.04H37.088c-1.08 0-2.075 1.178-1.97 2.128" id="i"/></defs><mask id="j" fill="#fff"><use xlink:href="#i"/></mask><use fill-opacity=".7" xlink:href="#i"/><rect fill="#fff" mask="url(#j)" x="39" y="2" width="31" height="16" rx="5"/><g mask="url(#j)" fill="#ff4f6d"><g transform="translate(38 24)"><circle cx="11" cy="11" r="11"/><circle cx="21" cy="11" r="11"/></g></g></g><path d="M120 130c0 4.418 5.373 8 12 8s12-3.582 12-8" fill-opacity=".16"/><g transform="translate(76 90)"><circle fill="#fff" cx="82" cy="22" r="12"/><circle fill-opacity=".7" cx="82" cy="22" r="6"/><path d="M16.16 25.447C18.007 21.65 22.164 19 26.998 19c4.816 0 8.961 2.63 10.817 6.407.552 1.122-.233 2.04-1.024 1.36-2.451-2.107-5.932-3.423-9.793-3.423-3.74 0-7.124 1.235-9.56 3.228-.891.728-1.818-.014-1.278-1.125" fill-opacity=".6"/></g><path d="M114.66 93.09c-4.998.362-9.923.086-14.918-.12-3.83-.16-7.717-.683-11.373 1.01-.7.324-4.53 2.28-4.442 3.349.07.855 3.936 2.192 4.632 2.436 3.668 1.29 7.18.895 10.953.669 4.628-.277 9.236-.073 13.861-.213 3.115-.093 7.917-.62 9.457-4.398.463-1.138.105-3.413-.36-4.658-.185-.494-.72-.681-1.125-.396-1.45 1.023-4.262 2.146-6.685 2.321m34.68 0c4.997.362 9.922.086 14.917-.12 3.83-.16 7.717-.683 11.373 1.01.701.324 4.53 2.28 4.442 3.349-.07.855-3.936 2.192-4.632 2.436-3.668 1.29-7.18.895-10.953.669-4.628-.277-9.235-.073-13.861-.213-3.115-.093-7.916-.62-9.456-4.398-.464-1.138-.105-3.413.36-4.658.184-.494.72-.681 1.124-.396 1.45 1.023 4.262 2.146 6.685 2.321" fill-opacity=".6"/></g><defs><path id="k" d="M0 0h264v280H0z"/><path d="M180.15 39.92c-2.76-2.82-5.964-5.213-9.08-7.613-.688-.53-1.387-1.046-2.06-1.595-.152-.125-1.718-1.246-1.905-1.659-.451-.993-.19-.22-.128-1.404.079-1.498 3.134-5.73.854-6.7-1.003-.427-2.791.709-3.753 1.084a60 60 0 0 1-5.731 1.9c.932-1.857 2.708-5.574-.631-4.579-2.602.775-5.026 2.768-7.64 3.705.865-1.417 4.324-5.811 1.198-6.057-.972-.076-3.803 1.748-4.85 2.138-3.137 1.165-6.34 1.92-9.634 2.513-11.198 2.018-24.293 1.442-34.653 6.54-7.988 3.93-15.874 10.029-20.489 17.795-4.447 7.485-6.11 15.676-7.041 24.253-.683 6.295-.739 12.802-.42 19.119.105 2.07.338 11.61 3.345 8.721 1.498-1.44 1.487-7.253 1.864-9.22.751-3.916 1.474-7.848 2.726-11.638 2.206-6.68 4.809-13.793 10.305-18.393 3.527-2.952 6.004-6.941 9.379-9.919 1.516-1.337.36-1.198 2.797-1.022 1.638.117 3.282.162 4.923.205 3.796.099 7.598.074 11.395.087 7.647.028 15.258.136 22.898-.265 3.395-.177 6.799-.274 10.185-.588 1.891-.175 5.247-1.387 6.804-.461 1.425.847 2.905 3.615 3.928 4.748 2.418 2.679 5.3 4.724 8.126 6.92 5.895 4.58 8.87 10.332 10.66 17.488 1.784 7.13 1.284 13.745 3.491 20.762.389 1.233 1.416 3.36 2.682 1.454.235-.354.175-2.3.175-3.42 0-4.52 1.144-7.91 1.13-12.46-.056-13.832-.504-31.868-10.85-42.439" id="m"/></defs><mask id="l" fill="#fff"><use xlink:href="#k"/></mask><g/><g mask="url(#l)"><g transform="translate(-1)"><mask id="n" fill="#fff"><use xlink:href="#m"/></mask><use fill="#1f3140" xlink:href="#m"/><g mask="url(#n)" fill="#ecdcbf"><path d="M0 0h264v280H0z"/></g><g transform="translate(62 85)"><defs><filter x="-.8%" y="-2.1%" width="101.6%" height="108.3%" filterUnits="objectBoundingBox" id="o"><feOffset dy="2" in="SourceAlpha" result="shadowOffsetOuter1"/><feColorMatrix values="0 0 0 0 0 0 0 0 0 0 0 0 0 0 0 0 0 0 0.1 0" in="shadowOffsetOuter1"/></filter><path d="M80.465 16.394C84.38 8.46 92.553 3 102 3c8.92 0 16.703 4.866 20.84 12.088q.316-.087.66-.088h8a2.5 2.5 0 1 1 0 5h-6.537A24 24 0 0 1 126 27c0 13.255-10.745 24-24 24S78 40.255 78 27c0-1.422.124-2.815.36-4.169C78.277 18.455 74.915 15 70.863 15c-3.736 0-6.887 2.94-7.42 6.83.365 1.665.558 3.395.558 5.17 0 13.255-10.745 24-24 24S16 40.255 16 27c0-2.435.363-4.785 1.037-7H10.5a2.5 2.5 0 1 1 0-5h8q.343 0 .66.088C23.297 7.866 31.08 3 40 3c9.352 0 17.455 5.35 21.416 13.155C63.493 13.039 66.949 11 70.862 11c4.013 0 7.545 2.144 9.603 5.394M40 47c11.046 0 20-8.954 20-20S51.046 7 40 7s-20 8.954-20 20 8.954 20 20 20m62 0c11.046 0 20-8.954 20-20s-8.954-20-20-20-20 8.954-20 20 8.954 20 20 20" id="p"/></defs><use fill="#000" filter="url(#o)" xlink:href="#p"/><use fill="#252c2f" xlink:href="#p"/></g></g></g></g></g></svg>