<svg width="264" height="280" viewBox="0 0 264 280" xmlns="http://www.w3.org/2000/svg" xmlns:xlink="http://www.w3.org/1999/xlink"><rect width="264" height="280" fill="#fff"/><defs><path d="M12 160c0 66.274 53.726 120 120 120s120-53.726 120-120h12V0H0v160z" id="c"/><path d="M124 144.611V163h4c39.765 0 72 32.235 72 72v9H0v-9c0-39.765 32.235-72 72-72h4v-18.389c-17.237-8.189-29.628-24.924-31.695-44.73C38.48 99.058 34 94.052 34 88V74c0-5.946 4.325-10.882 10-11.834V56c0-30.928 25.072-56 56-56s56 25.072 56 56v6.166c5.675.952 10 5.888 10 11.834v14c0 6.052-4.48 11.058-10.305 11.881-2.067 19.806-14.458 36.541-31.695 44.73" id="e"/></defs><g fill="none" fill-rule="evenodd"><mask id="d" fill="#fff"><use xlink:href="#c"/></mask><g/><g mask="url(#d)"><g transform="translate(32 36)"><mask id="f" fill="#fff"><use xlink:href="#e"/></mask><use fill="#d0c6ac" xlink:href="#e"/><g mask="url(#f)" fill="#fd9841"><path d="M0 0h264v280H0z"/></g><path d="M156 79v23c0 30.928-25.072 56-56 56s-56-25.072-56-56V79v15c0 30.928 25.072 56 56 56s56-25.072 56-56z" fill-opacity=".1" fill="#000" mask="url(#f)"/></g><g transform="translate(0 170)"><defs><path d="M94 29.688V74h76V29.688a71.5 71.5 0 0 1 26 8.944V110H68V38.632a71.5 71.5 0 0 1 26-8.944" id="g"/></defs><mask id="h" fill="#fff"><use xlink:href="#g"/></mask><use fill="#b7c1db" xlink:href="#g"/><g mask="url(#h)" fill="#b1e2ff"><path d="M0 0h264v110H0z"/></g><circle fill="#f4f4f4" cx="81" cy="83" r="5"/><circle fill="#f4f4f4" cx="183" cy="83" r="5"/></g><g fill="#000"><path d="M118 150c0 5.372 6.158 9 14 9s14-3.628 14-9c0-1.105-.95-2-2-2-1.293 0-1.87.905-2 2-1.242 2.938-4.317 4.716-10 5-5.683-.284-8.758-2.062-10-5-.13-1.095-.707-2-2-2-1.05 0-2 .895-2 2" fill-opacity=".6" fill-rule="nonzero"/><path d="M120 130c0 4.418 5.373 8 12 8s12-3.582 12-8" fill-opacity=".16"/><g transform="translate(76 90)"><circle fill="#fff" cx="30" cy="22" r="14"/><circle fill="#fff" cx="82" cy="22" r="14"/><circle fill-opacity=".7" cx="30" cy="22" r="6"/><circle fill-opacity=".7" cx="82" cy="22" r="6"/></g><path d="m98.766 83.578.911-.402c5.243-2.081 13.188-1.209 18.046 1.123.567.272.18 1.153-.402 1.108-14.919-1.151-24.963 8.146-28.375 14.44-.101.187-.407.208-.482.034-2.308-5.319 4.45-13.985 10.302-16.303m66.468 0-.911-.402c-5.243-2.081-13.188-1.209-18.046 1.123-.567.272-.18 1.153.402 1.108 14.919-1.151 24.963 8.146 28.375 14.44.101.187.407.208.482.034 2.308-5.319-4.45-13.985-10.302-16.303" fill-opacity=".6"/></g><defs><path id="i" d="M0 0h264v280H0z"/><path d="M21 157.54V69.047c0-3.532.398-6.971 1.152-10.275C25.205 38.731 36.775 22.811 50 13c19.905-14.76 53.442-19.018 65.047-1.478C123.698 7.681 136.52 11.182 146 20c9.565 9.415 17.2 30.197 12.657 47.204q.158 1.898.158 3.837v21.851A12.01 12.01 0 0 0 149 83.166V83c-6.036-21.536-23.77-31.42-34.57-41.223C97.535 60.673 44.823 60.74 27 98v10c0 6.019 4.43 11.002 10.209 11.867 1.743 20.248 14.26 37.416 31.791 45.744V166c2.93 43.855-6.642 98.797-69 82 13.606-7.962 20.808-58.944 21-90.46m96 8.071c17.53-8.328 30.048-25.496 31.791-45.744a12.01 12.01 0 0 0 10.024-9.76v1.363a100 100 0 0 0 10.963 45.524l26.949 52.707c6.963 13.619 4.919 29.473-3.936 40.768C189.966 213.289 158.903 184 121 184h-4z" id="k"/></defs><mask id="j" fill="#fff"><use xlink:href="#i"/></mask><g/><g mask="url(#j)"><g transform="translate(39 15)"><mask id="l" fill="#fff"><use xlink:href="#k"/></mask><use fill="#272c2e" xlink:href="#k"/><g mask="url(#l)" fill="#ecdcbf"><path d="M0 0h264v280H0z"/></g></g><path d="M66 113c17.823-32.335 70.535-32.393 87.43-48.792 10.778 8.49 28.462 15.059 34.533 33.66-6.071-21.444-23.755-31.308-34.533-41.09C136.535 75.672 83.823 75.74 66 113" fill-opacity=".16" fill="#000"/><g transform="translate(61 85)"><defs><filter x="-.8%" y="-2.1%" width="101.6%" height="108.3%" filterUnits="objectBoundingBox" id="m"><feOffset dy="2" in="SourceAlpha" result="shadowOffsetOuter1"/><feColorMatrix values="0 0 0 0 0 0 0 0 0 0 0 0 0 0 0 0 0 0 0.1 0" in="shadowOffsetOuter1"/></filter><path d="M80.465 16.394C84.38 8.46 92.553 3 102 3c8.92 0 16.703 4.866 20.84 12.088q.316-.087.66-.088h8a2.5 2.5 0 1 1 0 5h-6.537A24 24 0 0 1 126 27c0 13.255-10.745 24-24 24S78 40.255 78 27c0-1.422.124-2.815.36-4.169C78.277 18.455 74.915 15 70.863 15c-3.736 0-6.887 2.94-7.42 6.83.365 1.665.558 3.395.558 5.17 0 13.255-10.745 24-24 24S16 40.255 16 27c0-2.435.363-4.785 1.037-7H10.5a2.5 2.5 0 1 1 0-5h8q.343 0 .66.088C23.297 7.866 31.08 3 40 3c9.352 0 17.455 5.35 21.416 13.155C63.493 13.039 66.949 11 70.862 11c4.013 0 7.545 2.144 9.603 5.394M40 47c11.046 0 20-8.954 20-20S51.046 7 40 7s-20 8.954-20 20 8.954 20 20 20m62 0c11.046 0 20-8.954 20-20s-8.954-20-20-20-20 8.954-20 20 8.954 20 20 20" id="n"/></defs><use fill="#000" filter="url(#m)" xlink:href="#n"/><use fill="#252c2f" xlink:href="#n"/></g></g></g></g></svg>