<svg width="264" height="280" viewBox="0 0 264 280" xmlns="http://www.w3.org/2000/svg" xmlns:xlink="http://www.w3.org/1999/xlink"><rect width="264" height="280" fill="#fff"/><defs><path d="M12 160c0 66.274 53.726 120 120 120s120-53.726 120-120h12V0H0v160z" id="c"/><path d="M124 144.611V163h4c39.765 0 72 32.235 72 72v9H0v-9c0-39.765 32.235-72 72-72h4v-18.389c-17.237-8.189-29.628-24.924-31.695-44.73C38.48 99.058 34 94.052 34 88V74c0-5.946 4.325-10.882 10-11.834V56c0-30.928 25.072-56 56-56s56 25.072 56 56v6.166c5.675.952 10 5.888 10 11.834v14c0 6.052-4.48 11.058-10.305 11.881-2.067 19.806-14.458 36.541-31.695 44.73" id="e"/></defs><g fill="none" fill-rule="evenodd"><mask id="d" fill="#fff"><use xlink:href="#c"/></mask><g/><g mask="url(#d)"><g transform="translate(32 36)"><mask id="f" fill="#fff"><use xlink:href="#e"/></mask><use fill="#d0c6ac" xlink:href="#e"/><g mask="url(#f)" fill="#d08b5b"><path d="M0 0h264v280H0z"/></g><path d="M156 79v23c0 30.928-25.072 56-56 56s-56-25.072-56-56V79v15c0 30.928 25.072 56 56 56s56-25.072 56-56z" fill-opacity=".1" fill="#000" mask="url(#f)"/></g><g transform="translate(0 170)"><defs><path d="M181.544 32.33C210.784 41.488 232 68.792 232 101.052V110H32v-8.948c0-32.655 21.739-60.232 51.534-69.05A18 18 0 0 0 83 36.348c0 16.281 22.162 29.48 49.5 29.48S182 52.629 182 36.348c0-1.363-.155-2.704-.456-4.018" id="g"/></defs><mask id="h" fill="#fff"><use xlink:href="#g"/></mask><use fill="#e6e6e6" xlink:href="#g"/><g mask="url(#h)" fill="#b1e2ff"><path d="M0 0h264v110H0z"/></g></g><g fill="#000"><g transform="translate(78 134)"><defs><path d="M29 15.609C30.41 25.23 41.062 33 54 33c12.968 0 23.646-7.817 25-18.26.101-.4-.225-1.74-2.174-1.74H31.174c-1.79 0-2.304 1.24-2.174 2.609" id="i"/></defs><mask id="j" fill="#fff"><use xlink:href="#i"/></mask><use fill-opacity=".7" xlink:href="#i"/><rect fill="#fff" mask="url(#j)" x="39" y="2" width="31" height="16" rx="5"/><path d="M65.984 23.747Q66 23.87 66 24v9c0 6.075-4.925 11-11 11h-1c-6.075 0-11-4.925-11-11v-9q0-.129.016-.253A2 2 0 0 1 43 23.5c0-1.933 2.91-3.5 6.5-3.5 2.01 0 3.808.491 5 1.263 1.192-.772 2.99-1.263 5-1.263 3.59 0 6.5 1.567 6.5 3.5q0 .124-.016.247" fill="#ff4f6d"/></g><path d="M120 130c0 4.418 5.373 8 12 8s12-3.582 12-8" fill-opacity=".16"/><g transform="translate(76 90)"><circle fill-opacity=".6" cx="30" cy="22" r="6"/><path d="M25 27s-6 7.27-6 11.27a6 6 0 1 0 12 0c0-4-6-11.27-6-11.27" fill="#92d9ff" fill-rule="nonzero"/><circle fill-opacity=".6" cx="82" cy="22" r="6"/></g><path d="m98.766 83.578.911-.402c5.243-2.081 13.188-1.209 18.046 1.123.567.272.18 1.153-.402 1.108-14.919-1.151-24.963 8.146-28.375 14.44-.101.187-.407.208-.482.034-2.308-5.319 4.45-13.985 10.302-16.303m64.226 10.492c5.762.773 14.747 5.794 13.995 11.607-.025.19-.313.25-.437.091-2.486-3.189-21.711-7.872-28.713-6.893-.64.09-1.064-.572-.627-.985 3.745-3.536 10.622-4.518 15.783-3.82" fill-opacity=".6"/></g><defs><rect id="m" x="74" y="50" width="118" height="36" rx="8"/><path d="M120 54H20v101c0 5.523-4.477 10-10 10s-10-4.477-10-10V44C0 19.7 19.7 0 44 0h52c24.3 0 44 19.7 44 44v111c0 5.523-4.477 10-10 10s-10-4.477-10-10z" id="k"/></defs><g/><g transform="translate(62 20)"><path d="M1 48h22.671v105.664c0 6.26-5.075 11.336-11.335 11.336S1 159.925 1 153.664zm115.329 0H139v105.664c0 6.26-5.075 11.336-11.336 11.336-6.26 0-11.335-5.075-11.335-11.336z" fill="#f4f4f4"/><mask id="l" fill="#fff"><use xlink:href="#k"/></mask><use fill="#d8d8d8" xlink:href="#k"/><g mask="url(#l)" fill="#929598"><path d="M0 0h264v280H0z"/></g></g><g transform="translate(-1)"><use fill="#000" filter="url(#m)" xlink:href="#m"/><use fill="#f4f4f4" xlink:href="#m"/></g><g transform="translate(48 72)"><defs><path d="M105.018 94.13c-3.868 5.591-6.76 1.817-10.88-1.254-2.481-1.849-6.177-4.148-9.634-4.035-3.456-.113-7.152 2.186-9.633 4.035-4.12 3.07-7.013 6.845-10.88 1.254-2.903-4.198-1.688-11.256 1.024-15.227 3.859-5.652 9.094-2.918 14.947-3.563 1.592-.175 3.19-.617 4.542-1.34 1.352.723 2.95 1.165 4.542 1.34 5.854.645 11.089-2.089 14.948 3.563 2.712 3.97 3.926 11.03 1.024 15.227M140.39 26c-3.424 14.075-4.998 28.434-7.481 42.671a319 319 0 0 1-1.685 8.879c-.127.62-.251 2.923-.862 3.214-1.851.884-5.624-3.817-6.633-4.879-2.533-2.666-5.045-5.356-8.13-7.448-6.235-4.227-13.535-6.726-21.13-7.32-3.178-.248-7.475.186-10.47 1.993-2.995-1.807-7.292-2.24-10.47-1.992-7.596.593-14.895 3.092-21.13 7.32-3.085 2.091-5.597 4.781-8.13 7.447-1.01 1.062-4.782 5.763-6.633 4.88-.61-.292-.735-2.595-.862-3.215a319 319 0 0 1-1.685-8.879C32.607 54.434 31.034 40.075 27.61 26c-.997 0-1.871 18.748-1.983 20.495-.452 7.094-.98 14.03-.305 21.131 1.164 12.249 2.377 27.608 11.71 36.962 8.434 8.451 20.678 10.218 31.24 15.553 1.36.687 3.163 1.535 5.108 2.23 2.049 1.563 6.113 2.629 10.794 2.629 4.91 0 9.142-1.173 11.08-2.862a47 47 0 0 0 4.475-1.997c10.56-5.336 22.805-7.102 31.238-15.553 9.334-9.354 10.547-24.713 11.712-36.962.674-7.1.146-14.037-.306-21.131C142.26 44.748 141.387 26 140.39 26" id="n"/></defs><mask id="o" fill="#fff"><use xlink:href="#n"/></mask><use fill="#252e32" xlink:href="#n"/><g mask="url(#o)" fill="#ecdcbf"><path d="M-32 0h264v244H-32z"/></g></g><g transform="translate(61 85)"><defs><filter x="-.8%" y="-2%" width="101.5%" height="108%" filterUnits="objectBoundingBox" id="p"><feOffset dy="2" in="SourceAlpha" result="shadowOffsetOuter1"/><feColorMatrix values="0 0 0 0 0 0 0 0 0 0 0 0 0 0 0 0 0 0 0.16 0" in="shadowOffsetOuter1" result="shadowMatrixOuter1"/><feMerge><feMergeNode in="shadowMatrixOuter1"/><feMergeNode in="SourceGraphic"/></feMerge></filter></defs><g filter="url(#p)" transform="translate(5 2)" fill-rule="nonzero"><path d="M66 11.111c-11.037 0-12.63-9.084-35.33-10.37C7.987-.283.816 6.449.777 11.11c.037 4.293-1.128 15.45 13.589 28.519 14.772 15.512 29.905 10.252 35.33 5.185C55.134 42.473 61.34 21.46 66 21.48s10.865 20.992 16.306 23.334c5.424 5.067 20.557 10.327 35.33-5.185 14.716-13.069 13.55-24.226 13.588-28.519-.04-4.662-7.21-11.394-29.895-10.37C78.63 2.027 77.037 11.11 66 11.11" fill="#f4f4f4"/><path d="M55.13 21.481c.38-7.658-12.914-15.839-27.177-15.555-14.256.299-16.111 9.453-16.306 12.963-.349 8.133 8.367 26.415 24.459 25.926 16.091-.51 18.803-18.28 19.023-23.334m21.742 0c-.38-7.658 12.914-15.839 27.177-15.555 14.255.299 16.11 9.453 16.305 12.963.35 8.133-8.367 26.415-24.458 25.926-16.092-.51-18.804-18.28-19.024-23.334" fill="#2f383b"/></g></g></g></g></svg>