<svg width="264" height="280" viewBox="0 0 264 280" xmlns="http://www.w3.org/2000/svg" xmlns:xlink="http://www.w3.org/1999/xlink"><rect width="264" height="280" fill="#fff"/><defs><path d="M12 160c0 66.274 53.726 120 120 120s120-53.726 120-120h12V0H0v160z" id="c"/><path d="M124 144.611V163h4c39.765 0 72 32.235 72 72v9H0v-9c0-39.765 32.235-72 72-72h4v-18.389c-17.237-8.189-29.628-24.924-31.695-44.73C38.48 99.058 34 94.052 34 88V74c0-5.946 4.325-10.882 10-11.834V56c0-30.928 25.072-56 56-56s56 25.072 56 56v6.166c5.675.952 10 5.888 10 11.834v14c0 6.052-4.48 11.058-10.305 11.881-2.067 19.806-14.458 36.541-31.695 44.73" id="e"/></defs><g fill="none" fill-rule="evenodd"><mask id="d" fill="#fff"><use xlink:href="#c"/></mask><g/><g mask="url(#d)"><g transform="translate(32 36)"><mask id="f" fill="#fff"><use xlink:href="#e"/></mask><use fill="#d0c6ac" xlink:href="#e"/><g mask="url(#f)" fill="#ffdbb4"><path d="M0 0h264v280H0z"/></g><path d="M156 79v23c0 30.928-25.072 56-56 56s-56-25.072-56-56V79v15c0 30.928 25.072 56 56 56s56-25.072 56-56z" fill-opacity=".1" fill="#000" mask="url(#f)"/></g><g transform="translate(0 170)"><defs><path d="M105.192 29.052H104c-39.765 0-72 32.235-72 72V110h200v-8.948c0-39.765-32.235-72-72-72h-1.192q.191 1.475.192 3c0 13.807-12.088 25-27 25s-27-11.193-27-25q0-1.525.192-3" id="g"/></defs><mask id="h" fill="#fff"><use xlink:href="#g"/></mask><use fill="#e6e6e6" xlink:href="#g"/><g mask="url(#h)" fill="#3c4f5c"><path d="M0 0h264v110H0z"/></g><path d="M156 22.28c6.182 4.555 10 10.826 10 17.748 0 7.205-4.137 13.705-10.771 18.3l-5.65-4.452-4.579.332 1-3.151-.078-.061C152.022 47.853 156 42.7 156 36.876zm-48-.709c-6.767 4.603-11 11.169-11 18.457 0 7.398 4.362 14.052 11.308 18.664l6.113-4.816 4.579.332-1-3.151.078-.061C111.978 47.853 108 42.7 108 36.876z" fill="#f2f2f2"/></g><g fill="#000"><path d="M118 150c0 5.372 6.158 9 14 9s14-3.628 14-9c0-1.105-.95-2-2-2-1.293 0-1.87.905-2 2-1.242 2.938-4.317 4.716-10 5-5.683-.284-8.758-2.062-10-5-.13-1.095-.707-2-2-2-1.05 0-2 .895-2 2" fill-opacity=".6" fill-rule="nonzero"/><path d="M120 130c0 4.418 5.373 8 12 8s12-3.582 12-8" fill-opacity=".16"/><g transform="translate(76 90)"><defs><path d="M14 14.048c9.61 0 14 4.451 14-2.486C28 4.624 21.732 0 14 0S0 4.624 0 11.562s4.39 2.486 14 2.486" id="i"/><path d="M14 14.048c9.61 0 14 4.451 14-2.486C28 4.624 21.732 0 14 0S0 4.624 0 11.562s4.39 2.486 14 2.486" id="k"/></defs><g transform="translate(16 13)"><mask id="j" fill="#fff"><use xlink:href="#i"/></mask><use fill="#fff" xlink:href="#i"/><circle fill-opacity=".7" mask="url(#j)" cx="14" cy="10" r="6"/></g><g transform="translate(68 13)"><mask id="l" fill="#fff"><use xlink:href="#k"/></mask><use fill="#fff" xlink:href="#k"/><circle fill-opacity=".7" mask="url(#l)" cx="14" cy="10" r="6"/></g></g><path d="M114.66 93.09c-4.998.362-9.923.086-14.918-.12-3.83-.16-7.717-.683-11.373 1.01-.7.324-4.53 2.28-4.442 3.349.07.855 3.936 2.192 4.632 2.436 3.668 1.29 7.18.895 10.953.669 4.628-.277 9.236-.073 13.861-.213 3.115-.093 7.917-.62 9.457-4.398.463-1.138.105-3.413-.36-4.658-.185-.494-.72-.681-1.125-.396-1.45 1.023-4.262 2.146-6.685 2.321m34.68 0c4.997.362 9.922.086 14.917-.12 3.83-.16 7.717-.683 11.373 1.01.701.324 4.53 2.28 4.442 3.349-.07.855-3.936 2.192-4.632 2.436-3.668 1.29-7.18.895-10.953.669-4.628-.277-9.235-.073-13.861-.213-3.115-.093-7.916-.62-9.456-4.398-.464-1.138-.105-3.413.36-4.658.184-.494.72-.681 1.124-.396 1.45 1.023 4.262 2.146 6.685 2.321" fill-opacity=".6"/></g><defs><path id="m" d="M0 0h264v280H0z"/><path d="M1 64c.347 1.488 1.673 1.223 2 0-.463-1.554 3.296-28.752 13-36 3.618-2.517 23.008-4.768 42.313-4.754C77.409 23.259 96.42 25.51 100 28c9.704 7.248 13.463 34.446 13 36 .327 1.223 1.653 1.488 2 0 .72-10.298 0-63.726-57-63S.28 53.702 1 64" id="q"/></defs><mask id="n" fill="#fff"><use xlink:href="#m"/></mask><g/><g mask="url(#n)"><g transform="translate(48 72)"><defs><path d="M105.018 94.13c-3.868 5.591-6.76 1.817-10.88-1.254-2.481-1.849-6.177-4.148-9.634-4.035-3.456-.113-7.152 2.186-9.633 4.035-4.12 3.07-7.013 6.845-10.88 1.254-2.903-4.198-1.688-11.256 1.024-15.227 3.859-5.652 9.094-2.918 14.947-3.563 1.592-.175 3.19-.617 4.542-1.34 1.352.723 2.95 1.165 4.542 1.34 5.854.645 11.089-2.089 14.948 3.563 2.712 3.97 3.926 11.03 1.024 15.227M140.39 26c-3.424 14.075-4.998 28.434-7.481 42.671a319 319 0 0 1-1.685 8.879c-.127.62-.251 2.923-.862 3.214-1.851.884-5.624-3.817-6.633-4.879-2.533-2.666-5.045-5.356-8.13-7.448-6.235-4.227-13.535-6.726-21.13-7.32-3.178-.248-7.475.186-10.47 1.993-2.995-1.807-7.292-2.24-10.47-1.992-7.596.593-14.895 3.092-21.13 7.32-3.085 2.091-5.597 4.781-8.13 7.447-1.01 1.062-4.782 5.763-6.633 4.88-.61-.292-.735-2.595-.862-3.215a319 319 0 0 1-1.685-8.879C32.607 54.434 31.034 40.075 27.61 26c-.997 0-1.871 18.748-1.983 20.495-.452 7.094-.98 14.03-.305 21.131 1.164 12.249 2.377 27.608 11.71 36.962 8.434 8.451 20.678 10.218 31.24 15.553 1.36.687 3.163 1.535 5.108 2.23 2.049 1.563 6.113 2.629 10.794 2.629 4.91 0 9.142-1.173 11.08-2.862a47 47 0 0 0 4.475-1.997c10.56-5.336 22.805-7.102 31.238-15.553 9.334-9.354 10.547-24.713 11.712-36.962.674-7.1.146-14.037-.306-21.131C142.26 44.748 141.387 26 140.39 26" id="o"/></defs><mask id="p" fill="#fff"><use xlink:href="#o"/></mask><use fill="#252e32" xlink:href="#o"/><g mask="url(#p)" fill="#4a312c"><path d="M-32 0h264v244H-32z"/></g></g><g transform="translate(74 34)"><mask id="r" fill="#fff"><use xlink:href="#q"/></mask><use fill="#28354b" xlink:href="#q"/><g mask="url(#r)" fill="#4a312c"><path d="M0 0h264v280H0z"/></g></g></g></g></g></svg>