<svg width="264" height="280" viewBox="0 0 264 280" xmlns="http://www.w3.org/2000/svg" xmlns:xlink="http://www.w3.org/1999/xlink"><rect width="264" height="280" fill="#fff"/><defs><path d="M12 160c0 66.274 53.726 120 120 120s120-53.726 120-120h12V0H0v160z" id="c"/><path d="M124 144.611V163h4c39.765 0 72 32.235 72 72v9H0v-9c0-39.765 32.235-72 72-72h4v-18.389c-17.237-8.189-29.628-24.924-31.695-44.73C38.48 99.058 34 94.052 34 88V74c0-5.946 4.325-10.882 10-11.834V56c0-30.928 25.072-56 56-56s56 25.072 56 56v6.166c5.675.952 10 5.888 10 11.834v14c0 6.052-4.48 11.058-10.305 11.881-2.067 19.806-14.458 36.541-31.695 44.73" id="e"/></defs><g fill="none" fill-rule="evenodd"><mask id="d" fill="#fff"><use xlink:href="#c"/></mask><g/><g mask="url(#d)"><g transform="translate(32 36)"><mask id="f" fill="#fff"><use xlink:href="#e"/></mask><use fill="#d0c6ac" xlink:href="#e"/><g mask="url(#f)" fill="#edb98a"><path d="M0 0h264v280H0z"/></g><path d="M156 79v23c0 30.928-25.072 56-56 56s-56-25.072-56-56V79v15c0 30.928 25.072 56 56 56s56-25.072 56-56z" fill-opacity=".1" fill="#000" mask="url(#f)"/></g><g transform="translate(0 170)"><defs><path d="M171.32 29.936C205.706 35.366 232 65.14 232 101.052V110H32v-8.948c0-35.914 26.294-65.686 60.682-71.116a23.9 23.9 0 0 0 7.554 13.603l29.085 26.229a4 4 0 0 0 5.358 0l29.085-26.229a24 24 0 0 0 1.234-1.196 23.9 23.9 0 0 0 6.322-12.407" id="g"/></defs><mask id="h" fill="#fff"><use xlink:href="#g"/></mask><use fill="#e6e6e6" xlink:href="#g"/><g mask="url(#h)" fill="#3c4f5c"><path d="M0 0h264v110H0z"/></g></g><g fill="#000"><g transform="translate(78 134)"><defs><rect id="i" x="24" y="9" width="60" height="22" rx="11"/></defs><rect fill-opacity=".6" x="22" y="7" width="64" height="26" rx="13"/><mask id="j" fill="#fff"><use xlink:href="#i"/></mask><use fill="#fff" xlink:href="#i"/><path d="M71 22h-9v12h-4V22h-9v12h-4V22h-9v12h-4V22h-8v-4h8V6h4v12h9V6h4v12h9V6h4v12h9V6h4v12h8.867v4H75v12h-4z" fill="#e6e6e6" mask="url(#j)"/></g><path d="M120 130c0 4.418 5.373 8 12 8s12-3.582 12-8" fill-opacity=".16"/><g transform="translate(76 90)" fill-opacity=".6"><circle cx="30" cy="22" r="6"/><path d="M70.61 24.955c1.577-3.918 5.54-6.85 10.361-7.187 4.804-.336 9.123 1.998 11.239 5.637.627 1.08-.092 2.051-.928 1.428C88.69 22.9 85.126 21.83 81.274 22.1c-3.731.261-7.02 1.73-9.312 3.887-.838.79-1.814.114-1.353-1.032"/></g><path d="m98.766 83.578.911-.402c5.243-2.081 13.188-1.209 18.046 1.123.567.272.18 1.153-.402 1.108-14.919-1.151-24.963 8.146-28.375 14.44-.101.187-.407.208-.482.034-2.308-5.319 4.45-13.985 10.302-16.303m66.468 0-.911-.402c-5.243-2.081-13.188-1.209-18.046 1.123-.567.272-.18 1.153.402 1.108 14.919-1.151 24.963 8.146 28.375 14.44.101.187.407.208.482.034 2.308-5.319-4.45-13.985-10.302-16.303" fill-opacity=".6"/></g><defs><path id="k" d="M0 0h264v280H0z"/><path d="M156 180.611c17.53-8.328 30.048-25.496 31.791-45.744C193.57 134.002 198 129.02 198 123v-13c0-5.946-4.325-10.882-10-11.834V92c0-30.928-25.072-56-56-56S76 61.072 76 92v6.166c-5.675.952-10 5.888-10 11.834v13c0 6.019 4.43 11.002 10.209 11.867 1.743 20.248 14.26 37.416 31.791 45.744V199h-4c-39.765 0-72 32.235-72 72v9h200v-9c0-39.765-32.235-72-72-72h-4zM0 0h264v280H0z" id="m"/><rect id="o" x="0" y="0" width="112" height="150" rx="56"/></defs><mask id="l" fill="#fff"><use xlink:href="#k"/></mask><g/><g mask="url(#l)"><mask id="n" fill="#fff"><use xlink:href="#m"/></mask><g/><path d="M116.18 40H146c25.405 0 46 20.595 46 46v68.109c0 26.541 18.759 50.24 30.61 71.943s-7.355 42.19-26.84 50.717A38.5 38.5 0 0 1 180.332 280h-45.068c-56.352 0-65.046-63.69-67.566-133.496l2.52-62.36C71.213 59.48 91.497 40 116.179 40" fill="#ccb55a" mask="url(#n)"/><g transform="translate(76 36)"><mask id="p" fill="#fff"><use xlink:href="#o"/></mask><g/><path d="M98.801 19.94C107.027 29.484 112 41.91 112 55.5v10-4c0-15.74-6.672-29.92-17.342-39.87q-46.107 16.57-77.717.378C6.505 31.937 0 45.958 0 61.5v4-10c0-13.607 4.987-26.05 13.233-35.6-3.834-3.04-4.974-11.713 6.234-15.023 11.845-3.499 9.84-18.079 27.99-20.803C65.61-18.65 63.972-11.375 81.03-12.35c17.057-.974 22.607-16.763 25.82-12.724 12.74 16.01 9.572 34.414-8.048 45.014" fill-opacity=".16" fill="#000" mask="url(#p)"/></g><path d="M89.878 52.361q33.225 19.299 83.366 0c14.53-7.772 25.087-23.319 8.707-43.398-2.169-2.658-10.707 6.713-27.6 7.687s-13.271-3.3-31.248-.576-15.991 17.304-27.722 20.803c-11.73 3.498-9.803 12.987-5.503 15.484" fill="#e0c863"/><g transform="translate(61 85)"><defs><filter x="-.8%" y="-2.4%" width="101.5%" height="109.8%" filterUnits="objectBoundingBox" id="q"><feOffset dy="2" in="SourceAlpha" result="shadowOffsetOuter1"/><feColorMatrix values="0 0 0 0 0 0 0 0 0 0 0 0 0 0 0 0 0 0 0.2 0" in="shadowOffsetOuter1" result="shadowMatrixOuter1"/><feMerge><feMergeNode in="shadowMatrixOuter1"/><feMergeNode in="SourceGraphic"/></feMerge></filter></defs><g filter="url(#q)" transform="translate(8 8)" fill="#d6eaf2"><path d="M46.25 7.275c2.37.022 3.492.417 3.896 2.89.41 2.506.011 5.322-.46 7.79-.721 3.768-1.92 7.46-4.708 10.214-1.47 1.45-3.261 2.606-5.167 3.395-1.012.42-2.081.722-3.15.952-.312.067-2.979.434-1.343.248-3.817.435-7.958.418-11.146-2.012-3.532-2.692-5.952-6.952-7.015-11.196-.623-2.483-1.93-8.422.459-10.407 2.737-2.274 28.633-1.874 28.633-1.874M22.217.491c-5.44.187-9.071 1.143-11.755 6.578-4.917 9.961 3.5 24.9 12.89 28.97 10.976 4.76 23.24-.507 29.043-10.033 3.073-5.044 4.626-12.683 4.526-18.502C56.795.077 51.607-.13 45.51.034zM79.68 7.273c-2.371.022-3.492.416-3.896 2.89-.41 2.505-.012 5.322.46 7.79.72 3.767 1.919 7.459 4.708 10.213 1.47 1.45 3.261 2.606 5.167 3.396 1.012.419 2.08.722 3.15.951.312.067 2.978.435 1.343.248 3.817.436 7.958.418 11.145-2.011 3.533-2.692 5.952-6.952 7.016-11.196.623-2.483 1.93-8.422-.46-10.407-2.737-2.275-28.632-1.874-28.632-1.874M103.713.488c5.44.187 9.071 1.144 11.754 6.579 4.918 9.96-3.5 24.9-12.889 28.97-10.977 4.76-23.24-.508-29.043-10.033C70.46 20.96 68.907 13.32 69.007 7.5 69.135.074 74.323-.132 80.42.031z"/><path d="M13.197 4.927c-3.412.191-7.31.237-10.507 1.712-3.385 1.562-3.908 5.1.36 5.587 1.92.22 3.845-.143 5.737-.481 1.55-.277 3.655-.187 5.12-.78 2.729-1.103 2.553-6.225-.71-6.038m99.538 0c3.412.191 7.31.237 10.507 1.712 3.384 1.562 3.907 5.1-.36 5.587-1.921.22-3.845-.143-5.738-.481-1.55-.277-3.654-.187-5.119-.78-2.73-1.103-2.554-6.225.71-6.038M73.11 7.013c-1.947-2.3-7.019-3.628-10.219-3.628s-8.123 1.328-10.069 3.628c-.981 1.16-1.015 2.711.686 3.438 2.118.906 4.01-.737 5.705-1.596 2.168-1.098 5.499-.978 7.506 0 1.708.833 3.586 2.502 5.704 1.596 1.701-.727 1.668-2.279.686-3.438"/></g></g></g></g></g></svg>