<svg width="264" height="280" viewBox="0 0 264 280" xmlns="http://www.w3.org/2000/svg" xmlns:xlink="http://www.w3.org/1999/xlink"><rect width="264" height="280" fill="#fff"/><defs><path d="M12 160c0 66.274 53.726 120 120 120s120-53.726 120-120h12V0H0v160z" id="c"/><path d="M124 144.611V163h4c39.765 0 72 32.235 72 72v9H0v-9c0-39.765 32.235-72 72-72h4v-18.389c-17.237-8.189-29.628-24.924-31.695-44.73C38.48 99.058 34 94.052 34 88V74c0-5.946 4.325-10.882 10-11.834V56c0-30.928 25.072-56 56-56s56 25.072 56 56v6.166c5.675.952 10 5.888 10 11.834v14c0 6.052-4.48 11.058-10.305 11.881-2.067 19.806-14.458 36.541-31.695 44.73" id="e"/></defs><g fill="none" fill-rule="evenodd"><mask id="d" fill="#fff"><use xlink:href="#c"/></mask><g/><g mask="url(#d)"><g transform="translate(32 36)"><mask id="f" fill="#fff"><use xlink:href="#e"/></mask><use fill="#d0c6ac" xlink:href="#e"/><g mask="url(#f)" fill="#fd9841"><path d="M0 0h264v280H0z"/></g><path d="M156 79v23c0 30.928-25.072 56-56 56s-56-25.072-56-56V79v15c0 30.928 25.072 56 56 56s56-25.072 56-56z" fill-opacity=".1" fill="#000" mask="url(#f)"/></g><g transform="translate(0 170)"><defs><path d="M171.32 29.936C205.706 35.366 232 65.14 232 101.052V110H32v-8.948c0-35.914 26.294-65.686 60.682-71.116a23.9 23.9 0 0 0 7.554 13.603l29.085 26.229a4 4 0 0 0 5.358 0l29.085-26.229a24 24 0 0 0 1.234-1.196 23.9 23.9 0 0 0 6.322-12.407" id="g"/></defs><mask id="h" fill="#fff"><use xlink:href="#g"/></mask><use fill="#e6e6e6" xlink:href="#g"/><g mask="url(#h)" fill="#fff"><path d="M0 0h264v110H0z"/></g></g><g fill="#000"><path d="M118 150c0 5.372 6.158 9 14 9s14-3.628 14-9c0-1.105-.95-2-2-2-1.293 0-1.87.905-2 2-1.242 2.938-4.317 4.716-10 5-5.683-.284-8.758-2.062-10-5-.13-1.095-.707-2-2-2-1.05 0-2 .895-2 2" fill-opacity=".6" fill-rule="nonzero"/><path d="M120 130c0 4.418 5.373 8 12 8s12-3.582 12-8" fill-opacity=".16"/><path d="M92.16 112.447c1.847-3.797 6.004-6.447 10.838-6.447 4.816 0 8.961 2.63 10.817 6.407.552 1.122-.233 2.04-1.024 1.36-2.451-2.107-5.932-3.423-9.793-3.423-3.74 0-7.124 1.235-9.56 3.228-.891.728-1.818-.014-1.278-1.125m58 0c1.847-3.797 6.004-6.447 10.838-6.447 4.816 0 8.961 2.63 10.817 6.407.552 1.122-.233 2.04-1.024 1.36-2.451-2.107-5.932-3.423-9.793-3.423-3.74 0-7.124 1.235-9.56 3.228-.891.728-1.818-.014-1.278-1.125" fill-opacity=".6"/><path d="M91.591 96.162c4.496-6.326 14.012-9.508 23.756-6.366a2 2 0 1 0 1.228-3.807c-11.408-3.68-22.74.11-28.244 7.856a2 2 0 1 0 3.26 2.317m80.786 6.996c-3.915-5.509-14.647-8.598-23.892-6.328a2 2 0 0 1-.954-3.884c10.736-2.637 23.165.94 28.107 7.895a2 2 0 1 1-3.26 2.317" fill-opacity=".6" fill-rule="nonzero"/></g><defs><path id="i" d="M0 0h264v280H0z"/><path d="M48.725 89.219A12 12 0 0 0 42 100v13c0 6.019 4.43 11.002 10.209 11.867 1.743 20.248 14.26 37.416 31.791 45.744V189h-4q-2.38 0-4.721.152a72 72 0 0 1-13.689-9.103A48 48 0 0 1 48 182c-26.51 0-48-21.49-48-48 0-14.41 6.349-27.335 16.402-36.134A43.8 43.8 0 0 1 8 72c0-21.84 15.911-39.962 36.774-43.41C51.019 11.89 67.12 0 86 0a43.8 43.8 0 0 1 22 5.886A43.8 43.8 0 0 1 130 0c18.88 0 34.981 11.89 41.226 28.59C192.09 32.039 208 50.16 208 72a43.8 43.8 0 0 1-8.402 25.866C209.65 106.665 216 119.591 216 134c0 26.51-21.49 48-48 48-4.72 0-9.281-.681-13.59-1.951a72 72 0 0 1-13.689 9.103A73 73 0 0 0 136 189h-4v-18.389c17.53-8.328 30.048-25.496 31.791-45.744C169.57 124.002 174 119.02 174 113v-13a11.99 11.99 0 0 0-5.476-10.073 24 24 0 0 1-3.235-1.47q-.63-.18-1.289-.291v-.453c-8.68-5.303-17.235-16.538-22.55-30.914C131.312 58.835 119.547 60 107 60c-11.961 0-23.212-1.059-33.02-2.921C68.756 71.064 60.465 82.043 52 87.423v.743a12 12 0 0 0-3.275 1.053" id="k"/></defs><mask id="j" fill="#fff"><use xlink:href="#i"/></mask><g/><g mask="url(#j)"><path d="M104.985 27.764C113.013 26.627 121.796 26 131 26c10.358 0 20.183.794 29 2.216C182.451 38.75 198 61.56 198 88v17.044c-11.538-.371-25.169-14.28-32.55-34.245C155.312 72.835 143.547 74 131 74c-11.961 0-23.212-1.059-33.02-2.921-7.304 19.548-20.597 33.223-31.98 33.943V88c0-26.825 16.004-49.913 38.985-60.236" fill-opacity=".16" fill="#000"/><g transform="translate(24 10)"><mask id="l" fill="#fff"><use xlink:href="#k"/></mask><use fill="#314756" xlink:href="#k"/><g mask="url(#l)" fill="#724133"><path d="M0 0h264v280H0z"/></g></g></g></g></g></svg>