<svg width="264" height="280" viewBox="0 0 264 280" xmlns="http://www.w3.org/2000/svg" xmlns:xlink="http://www.w3.org/1999/xlink"><rect width="264" height="280" fill="#fff"/><defs><path d="M12 160c0 66.274 53.726 120 120 120s120-53.726 120-120h12V0H0v160z" id="c"/><path d="M124 144.611V163h4c39.765 0 72 32.235 72 72v9H0v-9c0-39.765 32.235-72 72-72h4v-18.389c-17.237-8.189-29.628-24.924-31.695-44.73C38.48 99.058 34 94.052 34 88V74c0-5.946 4.325-10.882 10-11.834V56c0-30.928 25.072-56 56-56s56 25.072 56 56v6.166c5.675.952 10 5.888 10 11.834v14c0 6.052-4.48 11.058-10.305 11.881-2.067 19.806-14.458 36.541-31.695 44.73" id="e"/></defs><g fill="none" fill-rule="evenodd"><mask id="d" fill="#fff"><use xlink:href="#c"/></mask><g/><g mask="url(#d)"><g transform="translate(32 36)"><mask id="f" fill="#fff"><use xlink:href="#e"/></mask><use fill="#d0c6ac" xlink:href="#e"/><g mask="url(#f)" fill="#ae5d29"><path d="M0 0h264v280H0z"/></g><path d="M156 79v23c0 30.928-25.072 56-56 56s-56-25.072-56-56V79v15c0 30.928 25.072 56 56 56s56-25.072 56-56z" fill-opacity=".1" fill="#000" mask="url(#f)"/></g><g transform="translate(0 170)"><defs><path d="M108 13.07c-17.919 2.006-31.72 7.482-31.996 21.575C50.146 45.568 32 71.165 32 100.999V110h200v-9c0-29.835-18.146-55.432-44.004-66.355-.276-14.093-14.077-19.57-31.996-21.574V32c0 13.255-10.745 24-24 24s-24-10.745-24-24z" id="g"/></defs><mask id="h" fill="#fff"><use xlink:href="#g"/></mask><use fill="#b7c1db" xlink:href="#g"/><g mask="url(#h)" fill="#e6e6e6"><path d="M0 0h264v110H0z"/></g><path d="M102 61.74V110h-7V58.15a65 65 0 0 0 7 3.59m67-3.59V98.5a3.5 3.5 0 1 1-7 0V61.74a65 65 0 0 0 7-3.59" fill="#f4f4f4" mask="url(#h)"/><path d="M90.96 12.724C75.91 15.571 65.5 21.243 65.5 32.308 65.5 52.02 98.538 68 132 68s66.5-15.98 66.5-35.692c0-11.065-10.41-16.737-25.46-19.584 9.085 3.35 14.96 8.982 14.96 18.353C188 51.469 160.179 68 132 68S76 51.469 76 31.077c0-9.37 5.875-15.003 14.96-18.353" fill-opacity=".16" fill="#000" mask="url(#h)"/></g><g fill="#000"><g transform="translate(78 134)"><path d="M44.19 16.106c-.171-5.11-4.397-9.309-9.895-10.106 3.365 1.959 5.685 5.495 5.685 9.677 0 5.668-5.473 10.568-11.803 10.568H28a13 13 0 0 0 4.392.755c5.322 0 9.821-3.153 11.294-7.486 2.475 2.156 6.177 3.525 10.314 3.525s7.84-1.37 10.314-3.525C65.787 23.847 70.286 27 75.608 27c1.552 0 3.034-.268 4.392-.756l-.177.001c-6.33 0-11.803-4.9-11.803-10.568 0-4.182 2.32-7.718 5.686-9.677-5.498.797-9.724 4.996-9.897 10.106-2.564 1.736-6.014 2.8-9.809 2.8s-7.245-1.064-9.81-2.8" opacity=".6" fill-opacity=".6"/><circle fill-opacity=".2" fill="#ff4646" cx="17" cy="15" r="9"/><circle fill-opacity=".2" fill="#ff4646" cx="91" cy="15" r="9"/></g><path d="M120 130c0 4.418 5.373 8 12 8s12-3.582 12-8" fill-opacity=".16"/><path d="M92.16 112.447c1.847-3.797 6.004-6.447 10.838-6.447 4.816 0 8.961 2.63 10.817 6.407.552 1.122-.233 2.04-1.024 1.36-2.451-2.107-5.932-3.423-9.793-3.423-3.74 0-7.124 1.235-9.56 3.228-.891.728-1.818-.014-1.278-1.125m58 0c1.847-3.797 6.004-6.447 10.838-6.447 4.816 0 8.961 2.63 10.817 6.407.552 1.122-.233 2.04-1.024 1.36-2.451-2.107-5.932-3.423-9.793-3.423-3.74 0-7.124 1.235-9.56 3.228-.891.728-1.818-.014-1.278-1.125m-30.065-13.323q.004-.012 0 0m-24.81-12.12c-2.369-.265-4.858.498-6.428 2.435-.59.727-1.553 2.48-1.509 3.416.017.357.225.376 1.125.59 1.645.393 4.499-1.113 6.354-.971 2.582.197 5.047 1.396 7.283 2.678 3.838 2.204 8.355 6.842 13.093 6.599.352-.018 5.42-1.739 4.411-2.722-.317-.484-3.034-1.129-3.502-1.362-2.172-1.084-4.367-2.448-6.443-3.718-4.527-2.772-8.944-6.339-14.385-6.944m48.746 12.12q-.007-.013 0 0m24.875-12.121c2.368-.266 4.858.497 6.427 2.434.59.728 1.552 2.48 1.508 3.416-.016.357-.224.377-1.124.59-1.645.393-4.5-1.112-6.354-.97-2.582.197-5.047 1.395-7.283 2.678-3.838 2.203-8.355 6.841-13.093 6.598-.352-.018-5.42-1.738-4.412-2.722.318-.484 3.035-1.129 3.502-1.362 2.172-1.084 4.368-2.447 6.444-3.718 4.528-2.77 8.944-6.338 14.385-6.943" fill-opacity=".6"/></g><defs><path id="i" d="M0 0h264v280H0z"/><path d="M6 28c-5.076.071-6-1.006-6-5C0 17.344 4.04 6.778 8 2c1.176-2.17 3.619-3.432 3 1-2.66 8.477.417 24.914-5 25m114 0c-5.417-.086-2.34-16.523-5-25-.619-4.432 1.824-3.17 3-1 3.96 4.778 8 15.344 8 21 0 3.994-.924 5.071-6 5" id="m"/></defs><mask id="j" fill="#fff"><use xlink:href="#i"/></mask><g/><g mask="url(#j)"><g transform="translate(48 72)"><defs><path d="M84 69.297c-6.792-3.586-16.422-4.148-21.611-2.165-5.775 2.205-10.884 8.451-19.75 5.696-.37-.114-.73.217-.619.58 1.374 4.51 9.008 7.599 11.602 7.7 11.34.442 20.473-8.278 30.378-8.947 9.906.67 19.04 9.389 30.379 8.947 2.594-.101 10.228-3.19 11.601-7.7.111-.363-.25-.694-.618-.58-8.867 2.755-13.976-3.49-19.75-5.696-5.19-1.983-14.82-1.42-21.612 2.165" id="k"/></defs><mask id="l" fill="#fff"><use xlink:href="#k"/></mask><use fill="#28354b" xlink:href="#k"/><g mask="url(#l)" fill="#4a312c"><path d="M-32 0h264v244H-32z"/></g></g><g transform="translate(69 74)"><mask id="n" fill="#fff"><use xlink:href="#m"/></mask><use fill="#9e7a7a" xlink:href="#m"/><g mask="url(#n)" fill="#c93305"><path d="M0 0h264v280H0z"/></g></g><g transform="translate(61 85)"><defs><filter x="-.8%" y="-2%" width="101.5%" height="108%" filterUnits="objectBoundingBox" id="o"><feOffset dy="2" in="SourceAlpha" result="shadowOffsetOuter1"/><feColorMatrix values="0 0 0 0 0 0 0 0 0 0 0 0 0 0 0 0 0 0 0.16 0" in="shadowOffsetOuter1" result="shadowMatrixOuter1"/><feMerge><feMergeNode in="shadowMatrixOuter1"/><feMergeNode in="SourceGraphic"/></feMerge></filter></defs><g filter="url(#o)" transform="translate(5 2)" fill-rule="nonzero"><path d="M66 11.111c-11.037 0-12.63-9.084-35.33-10.37C7.987-.283.816 6.449.777 11.11c.037 4.293-1.128 15.45 13.589 28.519 14.772 15.512 29.905 10.252 35.33 5.185C55.134 42.473 61.34 21.46 66 21.48s10.865 20.992 16.306 23.334c5.424 5.067 20.557 10.327 35.33-5.185 14.716-13.069 13.55-24.226 13.588-28.519-.04-4.662-7.21-11.394-29.895-10.37C78.63 2.027 77.037 11.11 66 11.11" fill="#f4f4f4"/><path d="M55.13 21.481c.38-7.658-12.914-15.839-27.177-15.555-14.256.299-16.111 9.453-16.306 12.963-.349 8.133 8.367 26.415 24.459 25.926 16.091-.51 18.803-18.28 19.023-23.334m21.742 0c-.38-7.658 12.914-15.839 27.177-15.555 14.255.299 16.11 9.453 16.305 12.963.35 8.133-8.367 26.415-24.458 25.926-16.092-.51-18.804-18.28-19.024-23.334" fill="#2f383b"/></g></g></g></g></g></svg>