<svg xmlns="http://www.w3.org/2000/svg" width="120mm" height="453.543" viewBox="0 0 120 120"><path style="opacity:.98999999;fill:#e6e6e6;fill-opacity:.24637681;stroke:#000;stroke-width:.06454252;stroke-linecap:round;stroke-linejoin:miter;stroke-miterlimit:4;stroke-dasharray:none;stroke-dashoffset:0;stroke-opacity:1" d="M43.457 85.352h119.494v119.935H43.457z" transform="translate(-43.204 -85.32)"/><path d="M37.047 145.971a59.967 59.967 0 0 1-59.715 59.967 59.967 59.967 0 0 1-60.217-59.462 59.967 59.967 0 0 1 59.208-60.467 59.967 59.967 0 0 1 60.716 58.953" style="opacity:.98999999;fill:#999;fill-opacity:.77064221;stroke:#000;stroke-width:.06547602;stroke-linecap:round;stroke-linejoin:miter;stroke-miterlimit:4;stroke-dasharray:none;stroke-dashoffset:0;stroke-opacity:1" transform="translate(-43.204 -85.32) translate(126.124 -.651)"/><path transform="translate(-43.204 -85.32) translate(126.124 -.651)scale(.26458)" d="M-87.937 395.135A103.807 103.807 0 0 0-190.43 499.807a103.8 103.8 0 0 0 41.754 82.238 141.62 141.62 0 0 0-79.562 128.297 142 142 0 0 0 1.658 19.338 227 227 0 0 0 11.152 8.402 132 132 0 0 1-3.369-27.82 132.17 132.17 0 0 1 79.32-122.104 103.8 103.8 0 0 0 53.286 14.58 103.8 103.8 0 0 0 52.43-14.595 132.17 132.17 0 0 1 79.288 118.785l.02 2.222a132.2 132.2 0 0 1-3.242 28.641 227 227 0 0 0 11.043-7.896 141.6 141.6 0 0 0 1.64-20.745l-.02-2.382a141.62 141.62 0 0 0-79.411-124.844l-.26.176a103.8 103.8 0 0 0 41.883-83.166l-.014-1.748A103.807 103.807 0 0 0-87.937 395.135Zm.119 9.435a94.37 94.37 0 0 1 95.547 92.776l.013 1.588a94.37 94.37 0 0 1-93.972 94.369 94.37 94.37 0 0 1-94.764-93.576 94.37 94.37 0 0 1 93.176-95.157z" style="opacity:.98999999;fill:#e6e6e6;fill-opacity:1;stroke:#000;stroke-width:.25984651;stroke-linecap:round;stroke-linejoin:miter;stroke-miterlimit:4;stroke-dasharray:none;stroke-dashoffset:0;stroke-opacity:1"/></svg>