<?xml version="1.0" encoding="UTF-8"?>
<!--
  Icon: volume-mute
  Set: Memory Icons
  Author: Pictogrammers (https://github.com/Pictogrammers/Memory)
  License: Apache 2.0 (https://github.com/Pictogrammers/Memory/blob/main/LICENSE)
  Source: https://iconify.design
-->
<svg xmlns="http://www.w3.org/2000/svg"
     xmlns:xlink="http://www.w3.org/1999/xlink"
     viewBox="0 0 22 22"
     width="22"
     height="22">
  <title>Pixelated Speaker with Mute Icon</title>
  <metadata>
    <rdf:RDF xmlns:rdf="http://www.w3.org/1999/02/22-rdf-syntax-ns#"
             xmlns:dc="http://purl.org/dc/elements/1.1/"
             xmlns:cc="http://creativecommons.org/ns#">
      <cc:Work rdf:about="">
        <dc:title>Pixelated Speaker with Mute Icon</dc:title>
        <dc:description>A pixel-style icon of a speaker with a cross, representing mute or sound off. Ideal for use in retro-themed designs, audio controls, or user interface elements.</dc:description>
        <dc:creator>
          <cc:Agent>
            <dc:title>Pictogrammers</dc:title>
          </cc:Agent>
        </dc:creator>
        <dc:source>https://github.com/Pictogrammers/Memory</dc:source>
        <dc:rights>
          <cc:Agent>
            <dc:title>Pictogrammers</dc:title>
          </cc:Agent>
        </dc:rights>
        <cc:license rdf:resource="https://github.com/Pictogrammers/Memory/blob/main/LICENSE"/>
        <dc:format>image/svg+xml</dc:format>
        <dc:type rdf:resource="http://purl.org/dc/dcmitype/StillImage"/>
        <dc:subject>
          <rdf:Bag>
            <rdf:li>pixelated-speaker</rdf:li>
            <rdf:li>mute-icon</rdf:li>
            <rdf:li>sound-off</rdf:li>
            <rdf:li>audio-control</rdf:li>
            <rdf:li>retro-icon</rdf:li>
            <rdf:li>pixel-art</rdf:li>
            <rdf:li>speaker-mute</rdf:li>
            <rdf:li>sound-icon</rdf:li>
            <rdf:li>volume-off</rdf:li>
            <rdf:li>audio-settings</rdf:li>
            <rdf:li>digital-sound</rdf:li>
            <rdf:li>retro-UI</rdf:li>
            <rdf:li>pixel-design</rdf:li>
            <rdf:li>sound-control</rdf:li>
            <rdf:li>no-sound</rdf:li>
          </rdf:Bag>
        </dc:subject>
      </cc:Work>
      <cc:License rdf:about="https://github.com/Pictogrammers/Memory/blob/main/LICENSE">
        <dc:title>Apache 2.0 (Apache-2.0)</dc:title>
      </cc:License>
    </rdf:RDF>
  </metadata>
  <path fill="currentColor" d="M12 7h2v1h1v1h2V8h1V7h2v2h-1v1h-1v2h1v1h1v2h-2v-1h-1v-1h-2v1h-1v1h-2v-2h1v-1h1v-2h-1V9h-1zM6 8V7h1V6h1V5h1V4h1V3h1v16h-1v-1H9v-1H8v-1H7v-1H6v-1H2V8zm1 2H4v2h3v1h1v1h1V8H8v1H7z"/>
</svg>